<svg xmlns="http://www.w3.org/2000/svg" viewBox="0 0 26.25 26.25"><defs><style>.cls-1{isolation:isolate;}.cls-2{fill:#fff;}</style></defs><title>facebook</title><g id="Layer_2" data-name="Layer 2"><g id="home" class="cls-1"><g id="contact-us"><g id="address"><g id="facebook"><path class="cls-2" d="M26.25,24.79a1.45,1.45,0,0,1-.41,1,1.39,1.39,0,0,1-1.05.44H18.11V16.05H21.5L22,12.13H18.11V9.61a2.18,2.18,0,0,1,.35-1.41A2,2,0,0,1,20,7.68h2.11V4.1C21.33,4,20.31,4,19.1,4a5.11,5.11,0,0,0-3.69,1.35A5.11,5.11,0,0,0,14,9.2v2.93H10.61v3.92H14v10.2H1.46a1.39,1.39,0,0,1-1-.44,1.45,1.45,0,0,1-.41-1V1.46a1.44,1.44,0,0,1,.41-1A1.44,1.44,0,0,1,1.46,0H24.79a1.45,1.45,0,0,1,1,.41,1.39,1.39,0,0,1,.44,1.05Z"/></g></g></g></g></g></svg>