<svg xmlns="http://www.w3.org/2000/svg" viewBox="0 0 26.25 26.25"><defs><style>.cls-1{isolation:isolate;}.cls-2{fill:#fff;}</style></defs><title>instagram</title><g id="Layer_2" data-name="Layer 2"><g id="home" class="cls-1"><g id="contact-us"><g id="address"><g id="instagram"><path class="cls-2" d="M26.19,7.68c0,1.09.06,2.91.06,5.44s0,4.37-.09,5.48a10.78,10.78,0,0,1-.5,2.9,6.84,6.84,0,0,1-4.16,4.16,10.78,10.78,0,0,1-2.9.5c-1.11.06-2.94.09-5.48.09s-4.36,0-5.47-.09a9.65,9.65,0,0,1-2.9-.55A6.23,6.23,0,0,1,2.2,24.05,6.67,6.67,0,0,1,.59,21.5a10.78,10.78,0,0,1-.5-2.9C0,17.49,0,15.66,0,13.12S0,8.76.09,7.65a10.78,10.78,0,0,1,.5-2.9A6.84,6.84,0,0,1,4.75.59a10.78,10.78,0,0,1,2.9-.5C8.76,0,10.59,0,13.12,0s4.37,0,5.48.09a10.78,10.78,0,0,1,2.9.5,6.84,6.84,0,0,1,4.16,4.16A11.64,11.64,0,0,1,26.19,7.68ZM23.38,20.86a12.58,12.58,0,0,0,.47-3.16c0-.86.06-2.08.06-3.64V12.19c0-1.6,0-2.81-.06-3.64a12,12,0,0,0-.47-3.16,4.24,4.24,0,0,0-2.52-2.52A12,12,0,0,0,17.7,2.4c-.86,0-2.08-.06-3.64-.06H12.19c-1.57,0-2.78,0-3.64.06a12.58,12.58,0,0,0-3.16.47A4.24,4.24,0,0,0,2.87,5.39,12,12,0,0,0,2.4,8.55c0,.86-.06,2.07-.06,3.64v1.87c0,1.56,0,2.78.06,3.64a12.58,12.58,0,0,0,.47,3.16,4.46,4.46,0,0,0,2.52,2.52,12.58,12.58,0,0,0,3.16.47c.86,0,2.07.06,3.64.06h1.87c1.6,0,2.82,0,3.64-.06a12,12,0,0,0,3.16-.47A4.46,4.46,0,0,0,23.38,20.86ZM13.12,6.39a6.57,6.57,0,0,1,3.37.9A6.8,6.8,0,0,1,19,9.76a6.74,6.74,0,0,1,0,6.73A6.8,6.8,0,0,1,16.49,19a6.74,6.74,0,0,1-6.73,0,6.8,6.8,0,0,1-2.47-2.47,6.74,6.74,0,0,1,0-6.73A6.8,6.8,0,0,1,9.76,7.29,6.56,6.56,0,0,1,13.12,6.39Zm0,11.13a4.4,4.4,0,0,0,4.4-4.4,4.4,4.4,0,0,0-4.4-4.39,4.4,4.4,0,0,0-4.39,4.39,4.4,4.4,0,0,0,4.39,4.4ZM21.74,6.09a1.61,1.61,0,0,0-1.58-1.58A1.56,1.56,0,0,0,19,5a1.52,1.52,0,0,0-.47,1.11,1.6,1.6,0,0,0,1.59,1.59,1.42,1.42,0,0,0,1.08-.47A1.89,1.89,0,0,0,21.74,6.09Z"/></g></g></g></g></g></svg>