<svg xmlns="http://www.w3.org/2000/svg" viewBox="0 0 131.04 30.56"><defs><style>.cls-1{fill:#fff;}.cls-2{fill:#ff0;}</style></defs><title>v5</title><g id="Layer_2" data-name="Layer 2"><g id="sizes"><g id="v5"><g id="the_big" data-name="the big"><path class="cls-1" d="M14.44,12.87H12.27A.28.28,0,0,1,12,12.6V11.44a.27.27,0,0,1,.27-.27h6.19a.26.26,0,0,1,.27.27V12.6a.27.27,0,0,1-.27.27H16.29v7.94a.28.28,0,0,1-.27.27H14.71a.28.28,0,0,1-.27-.27Z"/><path class="cls-1" d="M20.48,11.44a.28.28,0,0,1,.27-.27h1.32a.26.26,0,0,1,.27.27v3.75H27V11.44a.26.26,0,0,1,.26-.27h1.31a.28.28,0,0,1,.27.27v9.37a.28.28,0,0,1-.27.27H27.22a.27.27,0,0,1-.26-.27V16.9H22.34v3.91a.27.27,0,0,1-.27.27H20.75a.28.28,0,0,1-.27-.27Z"/><path class="cls-1" d="M31.66,11.44a.26.26,0,0,1,.27-.27h5.76a.26.26,0,0,1,.27.27V12.6a.27.27,0,0,1-.27.27H33.5v2.32H37a.28.28,0,0,1,.27.27v1.17a.27.27,0,0,1-.27.27H33.5v2.48h4.19a.27.27,0,0,1,.27.27v1.16a.27.27,0,0,1-.27.27H31.93a.27.27,0,0,1-.27-.27Z"/><path class="cls-1" d="M45.88,11.44a.26.26,0,0,1,.27-.27h3.24a2.77,2.77,0,0,1,3,2.62A2.69,2.69,0,0,1,50.82,16a2.54,2.54,0,0,1,1.84,2.31,2.86,2.86,0,0,1-3.08,2.73H46.15a.27.27,0,0,1-.27-.27Zm3.34,3.89a1.22,1.22,0,0,0,1.22-1.27,1.16,1.16,0,0,0-1.22-1.21H47.71v2.48Zm.2,4.08a1.27,1.27,0,0,0,1.28-1.29,1.37,1.37,0,0,0-1.45-1.23H47.71v2.52Z"/><path class="cls-1" d="M54.9,11.44a.28.28,0,0,1,.27-.27h1.32a.28.28,0,0,1,.27.27v9.37a.28.28,0,0,1-.27.27H55.17a.28.28,0,0,1-.27-.27Z"/><path class="cls-1" d="M64,11a5.37,5.37,0,0,1,3.46,1.31.28.28,0,0,1,0,.4l-.88.92a.25.25,0,0,1-.37,0,3.16,3.16,0,0,0-2.13-.82,3.27,3.27,0,0,0,0,6.53A4.36,4.36,0,0,0,65.78,19v-1.2H64.64a.26.26,0,0,1-.27-.26V16.44a.26.26,0,0,1,.27-.27h2.72a.27.27,0,0,1,.26.27v3.62a.29.29,0,0,1-.12.23,7.16,7.16,0,0,1-3.51.92A5.09,5.09,0,0,1,64,11Z"/></g><path class="cls-2" d="M82.46.14H79.14a.27.27,0,0,0-.27.27V9.79a.26.26,0,0,0,.27.26h1.3a.27.27,0,0,0,.27-.26V6.46h1.77a3.16,3.16,0,1,0,0-6.32Zm-.11,4.59H80.71V1.88h1.64a1.42,1.42,0,0,1,1.46,1.38A1.46,1.46,0,0,1,82.35,4.73Z"/><path class="cls-2" d="M95.29.14H94a.27.27,0,0,0-.27.27V6.22a2.06,2.06,0,1,1-4.12,0V.41a.27.27,0,0,0-.27-.27H87.94a.27.27,0,0,0-.26.27V6.3a3.94,3.94,0,0,0,7.88,0V.41A.28.28,0,0,0,95.29.14Z"/><path class="cls-2" d="M101.47,4.19c-1.15-.47-1.67-.92-1.67-1.58a1.13,1.13,0,0,1,1.24-1,4.65,4.65,0,0,1,2,.78c.17.12.38,0,.5-.17l.53-.8A.35.35,0,0,0,104,1,5,5,0,0,0,101.13,0c-2.25,0-3.19,1.46-3.19,2.72,0,1.67,1.33,2.52,2.66,3.06s1.8,1,1.8,1.7a1.18,1.18,0,0,1-1.29,1.09A4.67,4.67,0,0,1,99,7.69a.34.34,0,0,0-.49.1L98,8.67c-.12.22,0,.29.07.42a4.59,4.59,0,0,0,3.12,1.11,3,3,0,0,0,3.26-2.81C104.43,5.56,102.84,4.74,101.47,4.19Z"/><path class="cls-2" d="M114.83.14h-1.3a.27.27,0,0,0-.27.27v1.9h-4.62V.41a.27.27,0,0,0-.27-.27h-1.32a.28.28,0,0,0-.27.27V9.79a.27.27,0,0,0,.27.26h1.32a.26.26,0,0,0,.27-.26V7.89h4.62v1.9a.26.26,0,0,0,.27.26h1.3a.27.27,0,0,0,.27-.26V.41A.28.28,0,0,0,114.83.14Zm-1.57,4V5.88h0v.69h-4.62V5.88h0V3.63h4.62Z"/><g id="outline"><polygon class="cls-1" points="71.87 30.57 0 30.57 0 0.61 70.69 0.61 70.69 2.57 1.96 2.57 1.96 28.6 71.87 28.6 71.87 30.57"/><polygon class="cls-1" points="131.04 30.39 121.71 30.39 121.71 28.43 129.08 28.43 129.08 2.91 122.53 2.91 122.53 0.95 131.04 0.95 131.04 30.39"/></g><rect class="cls-2" x="74.49" y="19.21" width="45.41" height="1.96"/></g></g></g></svg>