<svg xmlns="http://www.w3.org/2000/svg" viewBox="0 0 30 24.38"><defs><style>.cls-1{isolation:isolate;}.cls-2{fill:#fff;}</style></defs><title>twiter</title><g id="Layer_2" data-name="Layer 2"><g id="home" class="cls-1"><g id="contact-us"><g id="address"><g id="twitter"><path class="cls-2" d="M27,6.86A17.34,17.34,0,0,1,24.9,15,16.7,16.7,0,0,1,19,21.62a16.85,16.85,0,0,1-9.55,2.76A17,17,0,0,1,0,21.62c.43,0,.92.06,1.46.06A12.17,12.17,0,0,0,9.14,19a5.7,5.7,0,0,1-3.6-1.2,6.05,6.05,0,0,1-2.14-3,10.9,10.9,0,0,0,1.11.06,8.23,8.23,0,0,0,1.64-.17,6.24,6.24,0,0,1-3.51-2.17A5.88,5.88,0,0,1,1.23,8.67V8.55A5.8,5.8,0,0,0,4,9.38,6.88,6.88,0,0,1,2,7.15a5.91,5.91,0,0,1-.76-3,5.89,5.89,0,0,1,.88-3.08,16.81,16.81,0,0,0,5.6,4.57,16.94,16.94,0,0,0,7.06,1.88,8.39,8.39,0,0,1-.12-1.41,6,6,0,0,1,.82-3.07A6,6,0,0,1,17.7.82,6.08,6.08,0,0,1,23.23.53a7,7,0,0,1,2,1.4A12.48,12.48,0,0,0,29.18.47a6.13,6.13,0,0,1-2.7,3.4,13.21,13.21,0,0,0,3.52-1,13.22,13.22,0,0,1-3.11,3.22A3.47,3.47,0,0,1,27,6.86Z"/></g></g></g></g></g></svg>